<svg id="Layer_3" height="512" viewBox="0 0 64 64" width="512" xmlns="http://www.w3.org/2000/svg" data-name="Layer 3"><path d="m4 12h56v46h-56z" fill="#939393"/><path d="m22 12v41h9a4 4 0 0 0 4-4v-37z" fill="#a9a9a9"/><path d="m27 48h10v10h-10z" fill="#bce4f8"/><path d="m27 56h1a2 2 0 0 0 2-2v-6h-3z" fill="#e4f5fd"/><path d="m32 56h1a2 2 0 0 0 2-2v-6h-3z" fill="#e4f5fd"/><path d="m4 12v41h9a4 4 0 0 0 4-4v-37z" fill="#a9a9a9"/><path d="m9 48h8v10h-8z" fill="#bce4f8"/><path d="m9 48v8a2 2 0 0 0 2-2v-6z" fill="#e4f5fd"/><path d="m14 48v8a2 2 0 0 0 2-2v-6z" fill="#e4f5fd"/><path d="m19 47h-12v2h5v9h2v-9h5z" fill="#686868"/><path d="m42 12v41h9a4 4 0 0 0 4-4v-37z" fill="#a9a9a9"/><path d="m47 48h8v10h-8z" fill="#bce4f8"/><path d="m47 48v8a2 2 0 0 0 2-2v-6z" fill="#e4f5fd"/><path d="m52 48v8a2 2 0 0 0 2-2v-6z" fill="#e4f5fd"/><path d="m26 40h4v4h-4z" fill="#bce4f8"/><path d="m8 32h10v4h-10z" fill="#bce4f8"/><path d="m14 32v3h1a2 2 0 0 0 2-2v-1z" fill="#e4f5fd"/><path d="m12 32h2v4h-2z" fill="#fff"/><path d="m8 32v3h1a2 2 0 0 0 2-2v-1z" fill="#e4f5fd"/><path d="m8 40h10v4h-10z" fill="#bce4f8"/><path d="m14 40v3h1a2 2 0 0 0 2-2v-1z" fill="#e4f5fd"/><path d="m12 40h2v4h-2z" fill="#fff"/><path d="m8 40v3h1a2 2 0 0 0 2-2v-1z" fill="#e4f5fd"/><path d="m26 40v3h1a2 2 0 0 0 2-2v-1z" fill="#e4f5fd"/><path d="m34 40h4v4h-4z" fill="#bce4f8"/><path d="m34 40v3h1a2 2 0 0 0 2-2v-1z" fill="#e4f5fd"/><path d="m34 32h4v4h-4z" fill="#bce4f8"/><path d="m34 32v3h1a2 2 0 0 0 2-2v-1z" fill="#e4f5fd"/><path d="m34 24h4v4h-4z" fill="#bce4f8"/><path d="m34 24v3h1a2 2 0 0 0 2-2v-1z" fill="#e4f5fd"/><path d="m34 16h4v4h-4z" fill="#bce4f8"/><path d="m34 16v3h1a2 2 0 0 0 2-2v-1z" fill="#e4f5fd"/><path d="m26 16h4v4h-4z" fill="#bce4f8"/><path d="m26 16v3h1a2 2 0 0 0 2-2v-1z" fill="#e4f5fd"/><path d="m26 24h4v4h-4z" fill="#bce4f8"/><path d="m26 24v3h1a2 2 0 0 0 2-2v-1z" fill="#e4f5fd"/><path d="m26 32h4v4h-4z" fill="#bce4f8"/><path d="m26 32v3h1a2 2 0 0 0 2-2v-1z" fill="#e4f5fd"/><path d="m8 24h10v4h-10z" fill="#bce4f8"/><path d="m14 24v3h1a2 2 0 0 0 2-2v-1z" fill="#e4f5fd"/><path d="m12 24h2v4h-2z" fill="#fff"/><path d="m8 24v3h1a2 2 0 0 0 2-2v-1z" fill="#e4f5fd"/><path d="m8 16h10v4h-10z" fill="#bce4f8"/><path d="m14 16v3h1a2 2 0 0 0 2-2v-1z" fill="#e4f5fd"/><path d="m12 16h2v4h-2z" fill="#fff"/><path d="m8 16v3h1a2 2 0 0 0 2-2v-1z" fill="#e4f5fd"/><path d="m46 24h10v4h-10z" fill="#bce4f8"/><path d="m52 24v3h1a2 2 0 0 0 2-2v-1z" fill="#e4f5fd"/><path d="m50 24h2v4h-2z" fill="#fff"/><path d="m46 24v3h1a2 2 0 0 0 2-2v-1z" fill="#e4f5fd"/><path d="m46 32h10v4h-10z" fill="#bce4f8"/><path d="m52 32v3h1a2 2 0 0 0 2-2v-1z" fill="#e4f5fd"/><path d="m50 32h2v4h-2z" fill="#fff"/><path d="m46 32v3h1a2 2 0 0 0 2-2v-1z" fill="#e4f5fd"/><path d="m46 40h10v4h-10z" fill="#bce4f8"/><path d="m52 40v3h1a2 2 0 0 0 2-2v-1z" fill="#e4f5fd"/><path d="m50 40h2v4h-2z" fill="#fff"/><path d="m46 40v3h1a2 2 0 0 0 2-2v-1z" fill="#e4f5fd"/><path d="m46 16h10v4h-10z" fill="#bce4f8"/><path d="m52 16v3h1a2 2 0 0 0 2-2v-1z" fill="#e4f5fd"/><path d="m58 2h-52a2 2 0 0 0 -2 2v2h56v-2a2 2 0 0 0 -2-2z" fill="#686868"/><path d="m22 2v2h12a2 2 0 0 0 2-2z" fill="#868686"/><path d="m18 2h-12a2 2 0 0 0 -2 2h12a2 2 0 0 0 2-2z" fill="#868686"/><path d="m42 2v2h12a2 2 0 0 0 2-2z" fill="#868686"/><path d="m2 6h60v6h-60z" fill="#f3a845"/><g fill="#686868"><path d="m21 12h2v46h-2z"/><path d="m41 12h2v46h-2z"/><path d="m39 47h-14v2h6v9h2v-9h6z"/><path d="m57 47h-12v2h5v9h2v-9h5z"/></g><path d="m21 2h2v4h-2z" fill="#474747"/><path d="m41 2h2v4h-2z" fill="#474747"/><path d="m50 16h2v4h-2z" fill="#fff"/><path d="m2 9h55a3 3 0 0 0 3-3h-58z" fill="#eecc61"/><path d="m2 58h60v4h-60z" fill="#686868"/><path d="m2 60h55a2 2 0 0 0 2-2h-57z" fill="#868686"/><path d="m46 16v3h1a2 2 0 0 0 2-2v-1z" fill="#e4f5fd"/></svg>